<svg width="17" height="16" viewBox="0 0 17 16" fill="none" xmlns="http://www.w3.org/2000/svg">
<g clip-path="url(#clip0_2_500)">
<path d="M11.1979 17.5887C9.75809 15.0631 8.3328 12.5619 6.91467 10.0734C6.72395 10.1318 6.68801 10.2512 6.6338 10.3462C6.01637 11.4276 5.41085 12.5162 4.78227 13.5909C4.64509 13.8254 4.66327 13.9972 4.79098 14.2184C5.4326 15.3298 6.06194 16.4486 6.69398 17.5657C6.75432 17.6724 6.85756 17.7658 6.81793 17.9169C6.70854 18.0352 6.56141 17.9906 6.43043 17.991C5.15969 17.9952 3.88886 17.9869 2.61822 17.9998C2.3426 18.0025 2.18559 17.9024 2.05187 17.6626C1.4206 16.5303 0.780847 15.4026 0.126856 14.2837C-0.0324655 14.0111 -0.0437161 13.802 0.119868 13.518C1.48369 11.1508 2.83122 8.77383 4.1802 6.39779C4.25853 6.25982 4.38474 6.13566 4.35718 5.89109C2.9093 5.89109 1.46025 5.89109 0.0434311 5.89109C-0.0453813 5.71953 0.0216224 5.63484 0.0710794 5.54787C1.23956 3.49314 2.4114 1.44036 3.5732 -0.618239C3.70515 -0.85204 3.85533 -0.967432 4.1312 -0.976283C5.43945 -1.01826 6.74753 -0.992539 8.05565 -0.988621C8.16633 -0.98829 8.28349 -0.983125 8.41949 -0.861107C8.12723 -0.344666 7.82999 0.182579 7.5309 0.708745C6.62659 2.29963 5.72794 3.89388 4.81066 5.47704C4.65505 5.74561 4.6629 5.9461 4.81593 6.20771C5.41251 7.22765 5.98729 8.26068 6.57248 9.28749C6.64656 9.41749 6.7343 9.53948 6.81514 9.66431C7.00501 9.59137 7.04316 9.43161 7.1151 9.30532C8.09011 7.59369 9.06589 5.88247 10.0305 4.16479C10.176 3.90558 10.3368 3.77855 10.6507 3.78316C11.9212 3.80179 13.1921 3.79061 14.4629 3.79201C14.5867 3.79215 14.7105 3.8031 14.8271 3.80868C14.8917 3.99478 14.7717 4.09834 14.707 4.21289C13.7071 5.98331 12.7095 7.75515 11.6936 9.51613C11.5376 9.7867 11.5505 9.98239 11.7011 10.2448C13.0927 12.6696 14.472 15.1017 15.8522 17.5332C15.9181 17.6494 16.0262 17.7554 15.9942 17.9142C15.8783 18.0277 15.7332 17.9932 15.6002 17.9935C14.3421 17.9959 13.0838 17.9854 11.8258 17.9999C11.5169 18.0035 11.3196 17.9013 11.1979 17.5887Z" fill="#2A00A8"/>
</g>
<defs>
<clipPath id="clip0_2_500">
<rect width="16" height="16" fill="white" transform="translate(0.111084 0.799805)"/>
</clipPath>
</defs>
</svg>
