<svg width="15" height="17" viewBox="0 0 15 17" fill="none" xmlns="http://www.w3.org/2000/svg">
<path d="M0 10.1899V2.74337C0 2.10126 0.360706 1.51358 0.933252 1.22288C2.05091 0.655405 3.37832 1.44724 3.40997 2.70031L3.53948 7.82797C3.57159 9.09898 4.94203 9.88142 6.0529 9.26299L6.13575 9.21686C6.59743 8.95984 7.1594 8.96074 7.62025 9.21923C8.68479 9.81633 8.64835 11.3608 7.55683 11.9071L4.80451 13.2844C3.88735 13.7434 2.8043 13.7277 1.90082 13.2424L1.78957 13.1826C0.687525 12.5906 0 11.4409 0 10.1899Z" fill="black"/>
<path d="M14.0166 6.93196V14.2678C14.0166 14.9123 13.6533 15.5017 13.0776 15.7914C11.9603 16.3534 10.6382 15.5615 10.6063 14.3113L10.4777 9.26751C10.4453 7.99493 9.07555 7.20953 7.96087 7.82434L7.87023 7.87434C7.41462 8.12564 6.86174 8.12476 6.40693 7.87202C5.34318 7.28088 5.37937 5.73886 6.46969 5.19828L9.23331 3.8281C10.1381 3.37951 11.2037 3.39486 12.0952 3.8693L12.2157 3.93342C13.324 4.52327 14.0166 5.67642 14.0166 6.93196Z" fill="black"/>
</svg>
